<svg width="342" height="226" viewBox="0 0 342 226" fill="none" xmlns="http://www.w3.org/2000/svg">
<mask id="path-1-outside-1_532_5306" maskUnits="userSpaceOnUse" x="74.2285" y="0" width="193" height="226" fill="black">
<rect fill="white" x="74.2285" width="193" height="226"/>
<path fill-rule="evenodd" clip-rule="evenodd" d="M253.466 2C254.056 2 254.598 2.3135 254.88 2.81732L255.336 3.62955C255.464 3.85931 255.529 3.97419 255.577 4.09703C255.621 4.21013 255.657 4.33297 255.679 4.45216C255.703 4.58162 255.709 4.7092 255.72 4.96438C256.725 26.761 249.796 45.875 240.629 61.7191C239.61 63.4789 239.101 64.3587 239.299 65.1213C239.497 65.8839 240.434 66.4604 242.309 67.6135C251.796 73.4483 261.627 85.2429 264.775 104.094C267.315 119.307 264.438 145.951 254.676 170.859C252.239 177.076 250.013 181.71 246.834 186.613C246.419 187.252 246.009 187.893 245.592 188.546C243.781 191.379 241.833 194.425 238.794 198.418L238.752 198.49L238.702 198.558C221.727 221.293 199.269 225.305 188.957 224.373C188.921 224.37 188.891 224.393 188.884 224.427C188.877 224.464 188.841 224.488 188.803 224.481C187.715 224.28 186.721 224.152 185.697 224.019C183.835 223.778 181.869 223.524 179.038 222.797C177.069 222.291 173.162 220.944 171.083 220.227C170.9 220.164 170.73 220.105 170.578 220.053C170.52 220.033 170.465 220.014 170.413 219.996C169.883 219.814 169.367 219.626 168.88 219.432C167.833 219.016 167.31 218.808 166.913 218.808C166.516 218.808 166.051 218.992 165.121 219.361C155.067 223.349 145.671 223.906 137.061 222.044C127.719 220.024 119.402 215.178 112.221 208.965C97.8845 196.562 87.8651 178.528 83.0049 165.709L82.9972 165.689L82.9901 165.668C79.3615 155.159 75.6522 138.142 76.3034 121.149C76.9535 104.187 82.8895 87.3628 97.0773 76.8297C124.653 56.3575 146.227 65.5008 154.658 73.3009C154.887 73.5125 155.007 73.8026 155.007 74.1096C155.007 74.6817 154.574 75.1667 153.992 75.2477L153.881 75.2632C153.474 75.3197 153.071 75.1908 152.77 74.9195C145.195 68.0887 124.717 59.8984 98.5951 79.2912C85.4625 89.0409 79.9728 104.667 79.3369 121.26C78.7026 137.811 82.3241 154.456 85.8606 164.707C90.6161 177.24 100.401 194.787 114.238 206.758C121.147 212.736 129.013 217.278 137.72 219.161C146.403 221.038 156.02 220.294 166.509 215.55L166.89 215.378C166.948 215.351 166.977 215.338 167.007 215.326C167.238 215.23 167.486 215.177 167.738 215.169C167.77 215.168 167.802 215.168 167.866 215.168H168.064C168.455 215.168 168.828 215.303 169.086 215.588C169.524 216.076 170.154 216.775 171.422 217.21C171.98 217.402 172.548 217.621 173.14 217.85C174.312 218.303 175.573 218.79 177.015 219.161C180.255 219.992 183.887 220.621 186.79 221.123C187.324 221.215 187.833 221.304 188.311 221.388C188.328 221.391 188.344 221.379 188.346 221.363C188.349 221.347 188.363 221.335 188.379 221.337C197.158 222.489 219.373 219.367 236.196 196.888C238.009 193.777 240.006 191.183 241.8 188.851C242.805 187.545 243.746 186.322 244.557 185.136C245.277 183.842 245.951 182.663 246.591 181.544C248.874 177.553 250.721 174.324 252.652 169.382C262.205 144.935 264.209 119.121 261.778 104.568C258.396 84.314 247.036 72.8898 237.537 68.3981C237.156 68.2182 236.988 67.7786 237.163 67.4039C237.014 67.6364 236.865 67.8681 236.715 68.099C228.404 80.921 218.94 92.4277 209.142 100.214C208.569 100.669 208.002 101.128 207.439 101.583L207.438 101.583C204.751 103.757 202.164 105.848 199.529 107.106C199.226 107.251 198.914 107.403 198.596 107.558L198.595 107.558C197.214 108.231 195.733 108.953 194.469 109.322C193.974 109.466 193.515 109.612 193.076 109.752C191.975 110.102 191.001 110.412 189.916 110.552C183.525 111.382 179.586 109.676 177.596 106.683C175.878 104.098 175.98 99.9585 176.419 97.4254C177.297 94.4805 178.111 92.469 179.038 90.368C179.718 88.8281 180.561 87.6628 181.435 86.4548C181.731 86.0464 182.03 85.6331 182.327 85.1988C189.866 74.1896 199.461 68.1234 208.13 65.0145C217.384 61.6954 225.45 62.1432 231.724 63.6629C233.286 64.041 234.066 64.2301 234.685 63.9787C235.303 63.7273 235.68 63.11 236.432 61.8753C245.246 47.4199 251.861 30.9103 252.201 11.1331C252.241 8.77513 252.262 7.59613 251.376 6.99646C250.491 6.39679 249.367 6.82255 247.118 7.67409C230.177 14.0878 214.587 25.6969 201.553 38.9226C185.895 54.8099 175.363 73.3695 169.16 85.1471C168.825 85.7835 168.153 86.1834 167.418 86.1834C166.306 86.1834 165.419 85.2813 165.467 84.2002L168.612 13.6204C168.643 12.9421 169.23 12.4149 169.927 12.4402C170.627 12.4656 171.174 13.0385 171.148 13.7198L169.305 61.8032C169.041 68.6901 168.909 72.1336 170.409 72.5706C171.91 73.0077 173.775 70.0095 177.507 64.013C183.186 54.8869 189.897 45.9668 199.023 36.7072C213.819 21.6933 233.009 7.91663 253.007 2.06529C253.156 2.02169 253.31 2 253.466 2ZM189.827 108.724C190.008 108.705 190.098 108.695 190.211 108.671C190.323 108.646 190.422 108.613 190.621 108.546C192.893 107.776 194.644 107.149 196.746 106.122C199.828 104.614 203.087 102.281 206.865 99.2294C214.899 92.7401 224.347 82.4361 231.966 71.2995C233.3 69.3495 233.967 68.3746 233.535 67.3944C233.103 66.4143 231.967 66.2218 229.697 65.8369C223.932 64.8593 216.634 64.7888 209.142 67.476C200.926 70.4224 191.702 76.1548 184.351 86.9219C182.963 88.9547 182.302 90.6385 181.525 92.6182C181.066 93.7866 180.567 95.0582 179.854 96.5655C179.816 96.6441 179.788 96.7267 179.77 96.8114C179.324 98.8846 178.464 102.885 179.797 104.891C181.065 106.798 184.323 109.3 189.827 108.724Z"/>
<path d="M176.506 96.9643C176.476 97.111 176.447 97.265 176.419 97.4254C176.403 97.4781 176.387 97.5312 176.372 97.5845L176.506 96.9643Z"/>
<path d="M176.506 96.9643C176.519 96.9029 176.531 96.8428 176.544 96.784C176.552 96.7502 176.559 96.7168 176.567 96.6839L176.506 96.9643Z"/>
</mask>
<path fill-rule="evenodd" clip-rule="evenodd" d="M253.466 2C254.056 2 254.598 2.3135 254.88 2.81732L255.336 3.62955C255.464 3.85931 255.529 3.97419 255.577 4.09703C255.621 4.21013 255.657 4.33297 255.679 4.45216C255.703 4.58162 255.709 4.7092 255.72 4.96438C256.725 26.761 249.796 45.875 240.629 61.7191C239.61 63.4789 239.101 64.3587 239.299 65.1213C239.497 65.8839 240.434 66.4604 242.309 67.6135C251.796 73.4483 261.627 85.2429 264.775 104.094C267.315 119.307 264.438 145.951 254.676 170.859C252.239 177.076 250.013 181.71 246.834 186.613C246.419 187.252 246.009 187.893 245.592 188.546C243.781 191.379 241.833 194.425 238.794 198.418L238.752 198.49L238.702 198.558C221.727 221.293 199.269 225.305 188.957 224.373C188.921 224.37 188.891 224.393 188.884 224.427C188.877 224.464 188.841 224.488 188.803 224.481C187.715 224.28 186.721 224.152 185.697 224.019C183.835 223.778 181.869 223.524 179.038 222.797C177.069 222.291 173.162 220.944 171.083 220.227C170.9 220.164 170.73 220.105 170.578 220.053C170.52 220.033 170.465 220.014 170.413 219.996C169.883 219.814 169.367 219.626 168.88 219.432C167.833 219.016 167.31 218.808 166.913 218.808C166.516 218.808 166.051 218.992 165.121 219.361C155.067 223.349 145.671 223.906 137.061 222.044C127.719 220.024 119.402 215.178 112.221 208.965C97.8845 196.562 87.8651 178.528 83.0049 165.709L82.9972 165.689L82.9901 165.668C79.3615 155.159 75.6522 138.142 76.3034 121.149C76.9535 104.187 82.8895 87.3628 97.0773 76.8297C124.653 56.3575 146.227 65.5008 154.658 73.3009C154.887 73.5125 155.007 73.8026 155.007 74.1096C155.007 74.6817 154.574 75.1667 153.992 75.2477L153.881 75.2632C153.474 75.3197 153.071 75.1908 152.77 74.9195C145.195 68.0887 124.717 59.8984 98.5951 79.2912C85.4625 89.0409 79.9728 104.667 79.3369 121.26C78.7026 137.811 82.3241 154.456 85.8606 164.707C90.6161 177.24 100.401 194.787 114.238 206.758C121.147 212.736 129.013 217.278 137.72 219.161C146.403 221.038 156.02 220.294 166.509 215.55L166.89 215.378C166.948 215.351 166.977 215.338 167.007 215.326C167.238 215.23 167.486 215.177 167.738 215.169C167.77 215.168 167.802 215.168 167.866 215.168H168.064C168.455 215.168 168.828 215.303 169.086 215.588C169.524 216.076 170.154 216.775 171.422 217.21C171.98 217.402 172.548 217.621 173.14 217.85C174.312 218.303 175.573 218.79 177.015 219.161C180.255 219.992 183.887 220.621 186.79 221.123C187.324 221.215 187.833 221.304 188.311 221.388C188.328 221.391 188.344 221.379 188.346 221.363C188.349 221.347 188.363 221.335 188.379 221.337C197.158 222.489 219.373 219.367 236.196 196.888C238.009 193.777 240.006 191.183 241.8 188.851C242.805 187.545 243.746 186.322 244.557 185.136C245.277 183.842 245.951 182.663 246.591 181.544C248.874 177.553 250.721 174.324 252.652 169.382C262.205 144.935 264.209 119.121 261.778 104.568C258.396 84.314 247.036 72.8898 237.537 68.3981C237.156 68.2182 236.988 67.7786 237.163 67.4039C237.014 67.6364 236.865 67.8681 236.715 68.099C228.404 80.921 218.94 92.4277 209.142 100.214C208.569 100.669 208.002 101.128 207.439 101.583L207.438 101.583C204.751 103.757 202.164 105.848 199.529 107.106C199.226 107.251 198.914 107.403 198.596 107.558L198.595 107.558C197.214 108.231 195.733 108.953 194.469 109.322C193.974 109.466 193.515 109.612 193.076 109.752C191.975 110.102 191.001 110.412 189.916 110.552C183.525 111.382 179.586 109.676 177.596 106.683C175.878 104.098 175.98 99.9585 176.419 97.4254C177.297 94.4805 178.111 92.469 179.038 90.368C179.718 88.8281 180.561 87.6628 181.435 86.4548C181.731 86.0464 182.03 85.6331 182.327 85.1988C189.866 74.1896 199.461 68.1234 208.13 65.0145C217.384 61.6954 225.45 62.1432 231.724 63.6629C233.286 64.041 234.066 64.2301 234.685 63.9787C235.303 63.7273 235.68 63.11 236.432 61.8753C245.246 47.4199 251.861 30.9103 252.201 11.1331C252.241 8.77513 252.262 7.59613 251.376 6.99646C250.491 6.39679 249.367 6.82255 247.118 7.67409C230.177 14.0878 214.587 25.6969 201.553 38.9226C185.895 54.8099 175.363 73.3695 169.16 85.1471C168.825 85.7835 168.153 86.1834 167.418 86.1834C166.306 86.1834 165.419 85.2813 165.467 84.2002L168.612 13.6204C168.643 12.9421 169.23 12.4149 169.927 12.4402C170.627 12.4656 171.174 13.0385 171.148 13.7198L169.305 61.8032C169.041 68.6901 168.909 72.1336 170.409 72.5706C171.91 73.0077 173.775 70.0095 177.507 64.013C183.186 54.8869 189.897 45.9668 199.023 36.7072C213.819 21.6933 233.009 7.91663 253.007 2.06529C253.156 2.02169 253.31 2 253.466 2ZM189.827 108.724C190.008 108.705 190.098 108.695 190.211 108.671C190.323 108.646 190.422 108.613 190.621 108.546C192.893 107.776 194.644 107.149 196.746 106.122C199.828 104.614 203.087 102.281 206.865 99.2294C214.899 92.7401 224.347 82.4361 231.966 71.2995C233.3 69.3495 233.967 68.3746 233.535 67.3944C233.103 66.4143 231.967 66.2218 229.697 65.8369C223.932 64.8593 216.634 64.7888 209.142 67.476C200.926 70.4224 191.702 76.1548 184.351 86.9219C182.963 88.9547 182.302 90.6385 181.525 92.6182C181.066 93.7866 180.567 95.0582 179.854 96.5655C179.816 96.6441 179.788 96.7267 179.77 96.8114C179.324 98.8846 178.464 102.885 179.797 104.891C181.065 106.798 184.323 109.3 189.827 108.724Z" fill="#2B3442"/>
<path d="M176.506 96.9643C176.476 97.111 176.447 97.265 176.419 97.4254C176.403 97.4781 176.387 97.5312 176.372 97.5845L176.506 96.9643Z" fill="#2B3442"/>
<path d="M176.506 96.9643C176.519 96.9029 176.531 96.8428 176.544 96.784C176.552 96.7502 176.559 96.7168 176.567 96.6839L176.506 96.9643Z" fill="#2B3442"/>
<path d="M264.775 104.094L263.42 104.32L264.775 104.094ZM254.676 170.859L255.954 171.36V171.36L254.676 170.859ZM246.834 186.613L247.986 187.36L246.834 186.613ZM245.592 188.546L246.749 189.285L245.592 188.546ZM238.794 198.418L237.701 197.587C237.667 197.631 237.636 197.678 237.607 197.727L238.794 198.418ZM238.752 198.49L239.852 199.312C239.884 199.271 239.912 199.227 239.939 199.182L238.752 198.49ZM238.702 198.558L237.601 197.736L237.601 197.736L238.702 198.558ZM185.697 224.019L185.521 225.381L185.521 225.381L185.697 224.019ZM179.038 222.797L179.38 221.467H179.38L179.038 222.797ZM171.083 220.227L170.635 221.525H170.636L171.083 220.227ZM170.578 220.053L170.131 221.351L170.131 221.352L170.578 220.053ZM170.413 219.996L169.967 221.295L169.967 221.295L170.413 219.996ZM137.061 222.044L137.352 220.702H137.352L137.061 222.044ZM112.221 208.965L111.322 210.004L112.221 208.965ZM83.0049 165.709L84.2892 165.222L84.2892 165.222L83.0049 165.709ZM82.9972 165.689L81.6989 166.137C81.7034 166.15 81.7081 166.163 81.713 166.176L82.9972 165.689ZM82.9901 165.668L84.2885 165.22L84.2884 165.22L82.9901 165.668ZM76.3034 121.149L77.6759 121.202L76.3034 121.149ZM97.0773 76.8297L97.896 77.9325H97.896L97.0773 76.8297ZM98.5951 79.2912L99.4138 80.394L98.5951 79.2912ZM79.3369 121.26L80.7094 121.312L79.3369 121.26ZM85.8606 164.707L84.5622 165.155C84.5668 165.168 84.5715 165.181 84.5765 165.194L85.8606 164.707ZM114.238 206.758L113.339 207.797L114.238 206.758ZM137.72 219.161L138.01 217.818H138.01L137.72 219.161ZM166.509 215.55L167.075 216.801L167.075 216.801L166.509 215.55ZM169.086 215.588L168.065 216.507L168.065 216.507L169.086 215.588ZM171.422 217.21L171.868 215.911L171.868 215.911L171.422 217.21ZM173.14 217.85L173.635 216.569L173.14 217.85ZM177.015 219.161L176.673 220.491L177.015 219.161ZM186.79 221.123L186.556 222.477L186.556 222.477L186.79 221.123ZM236.196 196.888L237.296 197.711C237.327 197.669 237.356 197.625 237.383 197.58L236.196 196.888ZM241.8 188.851L240.712 188.013L241.8 188.851ZM244.557 185.136L245.691 185.911C245.714 185.876 245.737 185.841 245.757 185.804L244.557 185.136ZM246.591 181.544L245.399 180.862L246.591 181.544ZM252.652 169.382L253.931 169.882L252.652 169.382ZM261.778 104.568L263.133 104.341L261.778 104.568ZM237.163 67.4039L238.407 67.9848C238.713 67.3296 238.459 66.5494 237.825 66.2007C237.192 65.852 236.396 66.0542 236.006 66.663L237.163 67.4039ZM236.715 68.099L235.562 67.3519V67.3519L236.715 68.099ZM209.142 100.214L209.996 101.289L209.996 101.289L209.142 100.214ZM207.439 101.583L206.575 100.515L206.565 100.523L207.439 101.583ZM207.438 101.583L208.302 102.652L208.312 102.643L207.438 101.583ZM199.529 107.106L198.937 105.867H198.937L199.529 107.106ZM198.596 107.558L197.994 106.323L197.99 106.325L198.596 107.558ZM198.595 107.558L199.196 108.793L199.201 108.791L198.595 107.558ZM194.469 109.322L194.854 110.64L194.469 109.322ZM193.076 109.752L193.492 111.061L193.076 109.752ZM189.916 110.552L189.739 109.19L189.916 110.552ZM177.596 106.683L178.74 105.922L177.596 106.683ZM179.038 90.368L177.782 89.8131V89.8132L179.038 90.368ZM182.327 85.1988L183.46 85.9748L183.46 85.9748L182.327 85.1988ZM208.13 65.0145L208.593 66.3074L208.13 65.0145ZM201.553 38.9226L200.574 37.9584V37.9585L201.553 38.9226ZM199.023 36.7072L200.001 37.6713L199.023 36.7072ZM176.372 97.5845L175.029 97.2938C174.873 98.0159 175.316 98.7322 176.032 98.9152C176.747 99.0982 177.48 98.6822 177.689 97.9737L176.372 97.5845ZM176.544 96.784L177.886 97.0788L177.886 97.0787L176.544 96.784ZM176.567 96.6839L177.909 96.9746C178.069 96.2362 177.603 95.5073 176.865 95.3432C176.128 95.1791 175.396 95.6415 175.228 96.378L176.567 96.6839ZM196.746 106.122L196.143 104.888L196.746 106.122ZM206.865 99.2294L206.002 98.1609L206.865 99.2294ZM209.142 67.476L208.678 66.1831L209.142 67.476ZM184.351 86.9219L185.485 87.6963L184.351 86.9219ZM181.525 92.6182L182.803 93.1201L181.525 92.6182ZM179.77 96.8114L181.113 97.1002L181.113 97.1L179.77 96.8114ZM179.797 104.891L180.941 104.131L179.797 104.891ZM179.854 96.5655L181.095 97.1529L179.854 96.5655ZM231.966 71.2995L233.1 72.0751L231.966 71.2995ZM229.697 65.8369L229.927 64.4827L229.697 65.8369ZM190.621 108.546L191.061 109.846L190.621 108.546ZM189.827 108.724L189.97 110.09L189.827 108.724ZM253.007 2.06529L253.393 3.38352L253.007 2.06529ZM169.927 12.4402L169.877 13.8128L169.927 12.4402ZM171.148 13.7198L172.52 13.7724V13.7724L171.148 13.7198ZM168.612 13.6204L167.24 13.5592L168.612 13.6204ZM167.418 86.1834L167.418 87.5569L167.418 86.1834ZM165.467 84.2002L166.839 84.2614L165.467 84.2002ZM153.881 75.2632L154.07 76.6236L154.07 76.6236L153.881 75.2632ZM152.77 74.9195L151.851 75.9395L152.77 74.9195ZM169.16 85.1471L167.945 84.5071L169.16 85.1471ZM181.435 86.4548L180.322 85.6498L180.322 85.6498L181.435 86.4548ZM188.346 221.363L189.707 221.553L188.346 221.363ZM188.379 221.337L188.558 219.975L188.379 221.337ZM188.311 221.388L188.55 220.035L188.311 221.388ZM237.537 68.3981L236.95 69.6397L237.537 68.3981ZM154.658 73.3009L153.725 74.3092L154.658 73.3009ZM252.201 11.1331L250.827 11.1095L252.201 11.1331ZM247.118 7.67409L246.631 6.38958L247.118 7.67409ZM153.992 75.2477L153.803 73.8872L153.803 73.8873L153.992 75.2477ZM231.724 63.6629L231.401 64.9978L231.724 63.6629ZM236.432 61.8753L237.605 62.5903L236.432 61.8753ZM168.88 219.432L169.388 218.156L168.88 219.432ZM165.121 219.361L164.615 218.084L165.121 219.361ZM166.89 215.378L166.324 214.126L166.324 214.126L166.89 215.378ZM167.007 215.326L166.479 214.058L167.007 215.326ZM167.738 215.169L167.696 213.796L167.738 215.169ZM240.629 61.7191L239.44 61.0313L240.629 61.7191ZM242.309 67.6135L243.029 66.4436L242.309 67.6135ZM255.336 3.62955L254.137 4.30088V4.30088L255.336 3.62955ZM255.577 4.09703L256.855 3.59404L255.577 4.09703ZM255.72 4.96438L254.348 5.02763L255.72 4.96438ZM255.679 4.45216L254.328 4.70218L255.679 4.45216ZM188.884 224.427L190.232 224.693L188.884 224.427ZM188.803 224.481L189.053 223.13L188.803 224.481ZM254.88 2.81732L256.079 2.14599L256.079 2.14599L254.88 2.81732ZM169.305 61.8032L167.932 61.7506L169.305 61.8032ZM177.507 64.013L178.673 64.7387L177.507 64.013ZM188.957 224.373L188.833 225.741L188.957 224.373ZM256.534 2.95823L256.079 2.14599L253.682 3.48864L254.137 4.30088L256.534 2.95823ZM241.817 62.407C251.072 46.4119 258.113 27.0369 257.092 4.90113L254.348 5.02763C255.338 26.4851 248.519 45.3381 239.44 61.0313L241.817 62.407ZM241.59 68.7835C250.733 74.4073 260.336 85.8551 263.42 104.32L266.129 103.868C262.917 84.6307 252.858 72.4893 243.029 66.4436L241.59 68.7835ZM263.42 104.32C265.91 119.229 263.094 145.618 253.397 170.358L255.954 171.36C265.782 146.285 268.721 119.386 266.129 103.868L263.42 104.32ZM253.397 170.358C250.982 176.518 248.796 181.063 245.681 185.865L247.986 187.36C251.231 182.358 253.495 177.634 255.954 171.36L253.397 170.358ZM245.681 185.865C245.264 186.509 244.852 187.154 244.435 187.806L246.749 189.285C247.167 188.632 247.574 187.995 247.986 187.36L245.681 185.865ZM244.435 187.806C242.627 190.634 240.704 193.64 237.701 197.587L239.887 199.25C242.962 195.209 244.935 192.123 246.749 189.285L244.435 187.806ZM237.607 197.727L237.565 197.799L239.939 199.182L239.981 199.11L237.607 197.727ZM237.651 197.669L237.601 197.736L239.802 199.379L239.852 199.312L237.651 197.669ZM237.601 197.736C220.946 220.044 198.978 223.9 189.08 223.005L188.833 225.741C199.561 226.711 222.508 222.543 239.802 199.379L237.601 197.736ZM185.521 225.381C186.549 225.514 187.507 225.638 188.554 225.832L189.053 223.13C187.922 222.922 186.894 222.789 185.873 222.657L185.521 225.381ZM178.697 224.127C181.612 224.876 183.646 225.139 185.521 225.381L185.873 222.657C184.023 222.417 182.126 222.172 179.38 221.467L178.697 224.127ZM170.636 221.525C172.686 222.232 176.66 223.604 178.697 224.127L179.38 221.467C177.479 220.978 173.638 219.655 171.531 218.928L170.636 221.525ZM170.131 221.352C170.283 221.404 170.452 221.462 170.635 221.525L171.531 218.928C171.348 218.865 171.178 218.807 171.025 218.754L170.131 221.352ZM169.967 221.295C170.019 221.313 170.074 221.332 170.131 221.351L171.025 218.754C170.967 218.734 170.911 218.715 170.858 218.697L169.967 221.295ZM168.372 220.709C168.885 220.913 169.422 221.108 169.967 221.295L170.858 218.697C170.344 218.52 169.85 218.34 169.388 218.156L168.372 220.709ZM136.771 223.387C145.654 225.307 155.327 224.723 165.627 220.638L164.615 218.084C154.806 221.975 145.688 222.504 137.352 220.702L136.771 223.387ZM111.322 210.004C118.628 216.325 127.148 221.305 136.771 223.387L137.352 220.702C128.291 218.742 120.176 214.032 113.119 207.927L111.322 210.004ZM81.7207 166.196C86.6323 179.15 96.7602 197.406 111.322 210.004L113.119 207.927C99.0088 195.719 89.0979 177.905 84.2892 165.222L81.7207 166.196ZM81.713 166.176L81.7207 166.196L84.2892 165.222L84.2815 165.202L81.713 166.176ZM81.6918 166.116L81.6989 166.137L84.2955 165.24L84.2885 165.22L81.6918 166.116ZM74.9309 121.097C74.2718 138.295 78.0207 155.484 81.6919 166.116L84.2884 165.22C80.7024 154.834 77.0326 137.989 77.6759 121.202L74.9309 121.097ZM96.2585 75.7269C81.6262 86.59 75.5908 103.879 74.9309 121.097L77.6759 121.202C78.3161 104.496 84.1527 88.1356 97.896 77.9325L96.2585 75.7269ZM155.591 72.2927C151.165 68.1985 143.375 63.8188 133.144 63.0931C122.882 62.3652 110.276 65.3205 96.2585 75.7269L97.896 77.9325C111.454 67.8666 123.423 65.1575 132.95 65.8332C142.507 66.5111 149.72 70.6032 153.725 74.3092L155.591 72.2927ZM154.07 76.6236L154.181 76.6081L153.803 73.8873L153.691 73.9028L154.07 76.6236ZM99.4138 80.394C125.003 61.3962 144.754 69.5412 151.851 75.9395L153.69 73.8994C145.635 66.6362 124.43 58.4007 97.7764 78.1884L99.4138 80.394ZM80.7094 121.312C81.336 104.961 86.734 89.8076 99.4138 80.394L97.7764 78.1884C84.191 88.2743 78.6096 104.373 77.9644 121.207L80.7094 121.312ZM87.159 164.259C83.665 154.131 80.083 137.657 80.7094 121.312L77.9644 121.207C77.3223 137.964 80.9832 154.781 84.5622 165.155L87.159 164.259ZM115.136 205.719C101.525 193.943 91.8488 176.618 87.1448 164.22L84.5765 165.194C89.3834 177.863 99.2767 195.63 113.339 207.797L115.136 205.719ZM138.01 217.818C129.585 215.996 121.921 211.589 115.136 205.719L113.339 207.797C120.373 213.882 128.442 218.559 137.43 220.503L138.01 217.818ZM165.943 214.299C155.71 218.927 146.392 219.631 138.01 217.818L137.43 220.503C146.413 222.446 156.33 221.661 167.075 216.801L165.943 214.299ZM166.324 214.126L165.943 214.299L167.075 216.801L167.456 216.629L166.324 214.126ZM168.064 213.794H167.866V216.541H168.064V213.794ZM171.868 215.911C170.941 215.593 170.505 215.113 170.106 214.669L168.065 216.507C168.544 217.039 169.366 217.957 170.976 218.509L171.868 215.911ZM173.635 216.569C173.049 216.342 172.455 216.113 171.868 215.911L170.976 218.509C171.505 218.691 172.048 218.901 172.645 219.131L173.635 216.569ZM177.356 217.83C176.003 217.483 174.813 217.024 173.635 216.569L172.645 219.131C173.811 219.582 175.143 220.098 176.673 220.491L177.356 217.83ZM187.025 219.77C184.111 219.266 180.534 218.646 177.356 217.83L176.673 220.491C179.976 221.339 183.663 221.976 186.556 222.477L187.025 219.77ZM188.55 220.035C188.069 219.951 187.558 219.862 187.025 219.77L186.556 222.477C187.09 222.569 187.597 222.657 188.072 222.74L188.55 220.035ZM188.201 222.699C197.42 223.908 220.146 220.628 237.296 197.711L235.096 196.065C218.601 218.107 196.895 221.069 188.558 219.975L188.201 222.699ZM237.383 197.58C239.146 194.555 241.09 192.025 242.888 189.688L240.712 188.013C238.921 190.34 236.873 192.999 235.009 196.197L237.383 197.58ZM242.888 189.688C243.888 188.39 244.854 187.135 245.691 185.911L243.423 184.361C242.638 185.509 241.722 186.7 240.712 188.013L242.888 189.688ZM245.757 185.804C246.473 184.518 247.143 183.346 247.784 182.226L245.399 180.862C244.759 181.981 244.081 183.166 243.357 184.468L245.757 185.804ZM247.784 182.226C250.069 178.23 251.96 174.926 253.931 169.882L251.373 168.882C249.481 173.722 247.68 176.875 245.399 180.862L247.784 182.226ZM253.931 169.882C263.561 145.239 265.61 119.173 263.133 104.341L260.424 104.794C262.807 119.069 260.849 144.632 251.373 168.882L253.931 169.882ZM263.133 104.341C259.678 83.6544 248.039 71.8449 238.124 67.1564L236.95 69.6397C246.033 73.9348 257.114 84.9737 260.424 104.794L263.133 104.341ZM237.867 68.8461C238.018 68.6131 238.169 68.3794 238.319 68.1448L236.006 66.663C235.859 66.8935 235.711 67.1231 235.562 67.3519L237.867 68.8461ZM209.996 101.289C219.954 93.376 229.513 81.7359 237.867 68.846L235.562 67.3519C227.295 80.1062 217.926 91.4795 208.287 99.1387L209.996 101.289ZM208.303 102.651C208.866 102.195 209.429 101.74 209.996 101.289L208.287 99.1386C207.709 99.5981 207.137 100.06 206.575 100.515L208.303 102.651ZM208.312 102.643L208.313 102.642L206.565 100.523L206.564 100.524L208.312 102.643ZM200.12 108.346C202.931 107.004 205.649 104.796 208.302 102.651L206.574 100.515C203.852 102.717 201.397 104.692 198.937 105.867L200.12 108.346ZM199.198 108.792C199.516 108.637 199.823 108.488 200.12 108.346L198.937 105.867C198.628 106.014 198.311 106.169 197.994 106.323L199.198 108.792ZM199.201 108.791L199.202 108.79L197.99 106.325L197.988 106.326L199.201 108.791ZM194.854 110.64C196.254 110.232 197.849 109.45 199.196 108.793L197.993 106.324C196.579 107.013 195.213 107.674 194.085 108.003L194.854 110.64ZM193.492 111.061C193.933 110.921 194.377 110.779 194.854 110.64L194.085 108.003C193.572 108.153 193.097 108.304 192.659 108.443L193.492 111.061ZM190.093 111.914C191.319 111.755 192.408 111.405 193.492 111.061L192.659 108.443C191.541 108.799 190.683 109.068 189.739 109.19L190.093 111.914ZM176.452 107.443C178.839 111.033 183.407 112.782 190.093 111.914L189.739 109.19C183.643 109.981 180.333 108.319 178.74 105.922L176.452 107.443ZM175.066 97.1908C174.83 98.5506 174.684 100.336 174.829 102.144C174.973 103.934 175.412 105.878 176.452 107.443L178.74 105.922C178.062 104.903 177.693 103.484 177.568 101.925C177.444 100.384 177.569 98.8334 177.772 97.6599L175.066 97.1908ZM177.782 89.8132C176.838 91.9506 176.002 94.0179 175.103 97.033L177.735 97.8178C178.592 94.9432 179.383 92.9875 180.295 90.9228L177.782 89.8132ZM180.322 85.6498C179.454 86.8507 178.528 88.1237 177.782 89.8131L180.295 90.9228C180.909 89.5325 181.669 88.475 182.548 87.2598L180.322 85.6498ZM181.194 84.4228C180.908 84.8401 180.619 85.2394 180.322 85.6498L182.548 87.2598C182.842 86.8535 183.151 86.426 183.46 85.9748L181.194 84.4228ZM207.666 63.7216C198.761 66.9152 188.916 73.1455 181.194 84.4228L183.46 85.9748C190.816 75.2337 200.161 69.3316 208.593 66.3074L207.666 63.7216ZM232.048 62.328C225.56 60.7567 217.216 60.2966 207.666 63.7216L208.593 66.3074C217.553 63.0942 225.339 63.5296 231.401 64.9978L232.048 62.328ZM250.827 11.1095C250.493 30.5739 243.987 46.8458 235.26 61.1603L237.605 62.5903C246.505 47.9939 253.229 31.2466 253.574 11.1567L250.827 11.1095ZM202.531 39.8867C215.474 26.7532 230.903 15.2815 247.604 8.95861L246.631 6.38958C229.45 12.8942 213.699 24.6407 200.574 37.9584L202.531 39.8867ZM170.375 85.7872C176.562 74.0409 187.019 55.6267 202.531 39.8867L200.574 37.9585C184.772 53.993 174.165 72.698 167.945 84.5071L170.375 85.7872ZM167.24 13.5592L164.095 84.139L166.839 84.2614L169.985 13.6815L167.24 13.5592ZM170.677 61.8558L172.52 13.7724L169.775 13.6672L167.932 61.7506L170.677 61.8558ZM198.045 35.7431C188.841 45.082 182.068 54.0838 176.341 63.2873L178.673 64.7387C184.304 55.69 190.954 46.8516 200.001 37.6713L198.045 35.7431ZM252.621 0.747068C232.323 6.68629 212.939 20.6299 198.045 35.7431L200.001 37.6713C214.7 22.7567 233.695 9.14696 253.393 3.38352L252.621 0.747068ZM177.772 97.66C177.798 97.513 177.824 97.3729 177.851 97.2406L175.161 96.6881C175.128 96.8491 175.096 97.017 175.066 97.1908L177.772 97.66ZM177.689 97.9737C177.704 97.9214 177.72 97.8694 177.735 97.8178L175.103 97.033C175.087 97.0869 175.071 97.141 175.055 97.1953L177.689 97.9737ZM175.164 96.6736L175.029 97.2938L177.714 97.8752L177.848 97.255L175.164 96.6736ZM175.203 96.4892C175.189 96.5543 175.174 96.6206 175.161 96.6881L177.851 97.2406C177.863 97.1853 177.874 97.1313 177.886 97.0788L175.203 96.4892ZM175.228 96.378C175.219 96.4149 175.211 96.452 175.203 96.4893L177.886 97.0787C177.893 97.0484 177.899 97.0187 177.906 96.9898L175.228 96.378ZM177.848 97.255L177.909 96.9746L175.224 96.3932L175.164 96.6736L177.848 97.255ZM196.143 104.888C194.123 105.876 192.44 106.479 190.18 107.245L191.061 109.846C193.347 109.072 195.166 108.423 197.35 107.355L196.143 104.888ZM206.002 98.1609C202.243 101.197 199.082 103.45 196.143 104.888L197.35 107.355C200.575 105.778 203.931 103.365 207.728 100.298L206.002 98.1609ZM230.833 70.5239C223.277 81.5676 213.917 91.7678 206.002 98.1609L207.728 100.298C215.881 93.7124 225.417 83.3047 233.1 72.0751L230.833 70.5239ZM209.605 68.7689C216.823 66.1805 223.871 66.2421 229.468 67.191L229.927 64.4827C223.992 63.4764 216.446 63.3972 208.678 66.1831L209.605 68.7689ZM185.485 87.6963C192.651 77.2005 201.623 71.6314 209.605 68.7689L208.678 66.1831C200.229 69.2133 190.753 75.1091 183.216 86.1474L185.485 87.6963ZM182.803 93.1201C183.579 91.1435 184.193 89.5891 185.485 87.6963L183.216 86.1474C181.733 88.3204 181.025 90.1335 180.246 92.1162L182.803 93.1201ZM181.095 97.1529C181.83 95.5992 182.344 94.2889 182.803 93.1201L180.246 92.1162C179.787 93.2844 179.303 94.5172 178.612 95.9782L181.095 97.1529ZM180.941 104.131C180.544 103.533 180.386 102.437 180.487 100.971C180.583 99.5731 180.888 98.1468 181.113 97.1002L178.427 96.5226C178.206 97.5492 177.858 99.1596 177.746 100.782C177.639 102.335 177.717 104.242 178.654 105.651L180.941 104.131ZM189.684 107.358C184.698 107.879 181.932 105.621 180.941 104.131L178.654 105.651C180.198 107.975 183.947 110.72 189.97 110.09L189.684 107.358ZM178.612 95.9782C178.531 96.1498 178.468 96.3324 178.427 96.5228L181.113 97.1C181.108 97.121 181.102 97.1385 181.095 97.1529L178.612 95.9782ZM233.1 72.0751C233.738 71.1428 234.322 70.2979 234.662 69.5554C235.032 68.7464 235.225 67.8227 234.792 66.8401L232.278 67.9488C232.293 67.9813 232.294 67.9943 232.292 68.0249C232.287 68.0757 232.265 68.1923 232.164 68.4112C231.946 68.8887 231.529 69.5063 230.833 70.5239L233.1 72.0751ZM229.468 67.191C230.653 67.3921 231.365 67.5176 231.849 67.6881C232.262 67.8332 232.269 67.9276 232.278 67.9488L234.792 66.8401C234.369 65.8812 233.592 65.3892 232.761 65.0968C232.002 64.8298 231.012 64.6666 229.927 64.4827L229.468 67.191ZM190.18 107.245C189.959 107.319 189.939 107.324 189.917 107.329L190.504 110.013C190.707 109.968 190.885 109.906 191.061 109.846L190.18 107.245ZM189.97 110.09C190.135 110.073 190.304 110.056 190.504 110.013L189.917 107.329C189.893 107.334 189.88 107.337 189.684 107.358L189.97 110.09ZM253.393 3.38352C253.414 3.37732 253.438 3.37349 253.466 3.37349V0.626506C253.182 0.626506 252.898 0.666073 252.621 0.747068L253.393 3.38352ZM169.877 13.8128C169.861 13.8122 169.836 13.8034 169.816 13.782C169.795 13.76 169.773 13.7178 169.775 13.6672L172.52 13.7724C172.577 12.2969 171.401 11.1193 169.977 11.0676L169.877 13.8128ZM169.985 13.6815C169.982 13.7316 169.958 13.77 169.937 13.7886C169.917 13.8066 169.894 13.8134 169.877 13.8128L169.977 11.0676C168.561 11.0162 167.306 12.093 167.24 13.5592L169.985 13.6815ZM167.418 84.8099C167.051 84.8099 166.827 84.5232 166.839 84.2614L164.095 84.139C164.01 86.0394 165.562 87.5569 167.418 87.5569L167.418 84.8099ZM153.691 73.9028C153.691 73.9028 153.692 73.9027 153.693 73.9028C153.694 73.9029 153.695 73.9031 153.696 73.9032C153.696 73.9035 153.694 73.9031 153.69 73.8994L151.851 75.9395C152.445 76.4758 153.252 76.7373 154.07 76.6236L153.691 73.9028ZM167.945 84.5071C167.853 84.6808 167.657 84.8099 167.418 84.8099L167.418 87.5569C168.65 87.5569 169.796 86.8861 170.375 85.7872L167.945 84.5071ZM189.707 221.553C189.61 222.243 188.971 222.8 188.201 222.699L188.558 219.975C187.754 219.87 187.087 220.45 186.986 221.172L189.707 221.553ZM188.072 222.74C188.819 222.872 189.591 222.376 189.707 221.553L186.986 221.172C187.097 220.383 187.837 219.909 188.55 220.035L188.072 222.74ZM168.064 216.541C168.083 216.541 168.097 216.543 168.106 216.545C168.116 216.546 168.119 216.548 168.117 216.547C168.115 216.546 168.108 216.543 168.098 216.536C168.087 216.529 168.076 216.519 168.065 216.507L170.106 214.669C169.537 214.037 168.76 213.794 168.064 213.794V216.541ZM238.124 67.1564C238.391 67.2826 238.569 67.6388 238.407 67.9848L235.918 66.823C235.407 67.9183 235.922 69.1539 236.95 69.6397L238.124 67.1564ZM153.725 74.3092C153.696 74.2822 153.671 74.2471 153.655 74.208C153.638 74.1697 153.633 74.1352 153.633 74.1096H156.38C156.38 73.4383 156.114 72.7767 155.591 72.2927L153.725 74.3092ZM253.574 11.1567C253.593 10.0282 253.616 9.00585 253.494 8.2C253.361 7.32503 253.025 6.45403 252.147 5.85937L250.606 8.13354C250.613 8.13856 250.709 8.1569 250.778 8.61084C250.857 9.13391 250.849 9.88004 250.827 11.1095L253.574 11.1567ZM247.604 8.95861C248.773 8.51584 249.495 8.24712 250.034 8.13659C250.515 8.03815 250.589 8.12177 250.606 8.13354L252.147 5.85937C251.279 5.27148 250.348 5.26814 249.483 5.44555C248.676 5.61088 247.711 5.9808 246.631 6.38958L247.604 8.95861ZM153.633 74.1096C153.633 73.9681 153.735 73.8968 153.803 73.8872L154.181 76.6081C155.414 76.4367 156.38 75.3953 156.38 74.1096H153.633ZM231.401 64.9978C232.153 65.1799 232.82 65.3432 233.375 65.418C233.948 65.4955 234.574 65.5064 235.202 65.2511L234.168 62.7063C234.166 62.7071 234.162 62.7087 234.153 62.7106C234.143 62.7127 234.125 62.7159 234.094 62.7179C234.029 62.722 233.92 62.7198 233.742 62.6957C233.361 62.6444 232.857 62.524 232.048 62.328L231.401 64.9978ZM235.26 61.1603C234.867 61.8051 234.631 62.1876 234.426 62.4506C234.242 62.6854 234.173 62.7043 234.168 62.7063L235.202 65.2511C235.815 65.0018 236.243 64.5863 236.591 64.1409C236.917 63.7237 237.246 63.1801 237.605 62.5903L235.26 61.1603ZM169.388 218.156C168.879 217.954 168.445 217.781 168.089 217.662C167.738 217.545 167.339 217.435 166.914 217.434L166.912 220.181C166.885 220.181 166.945 220.176 167.217 220.267C167.484 220.356 167.834 220.495 168.372 220.709L169.388 218.156ZM165.627 220.638C166.109 220.447 166.411 220.328 166.643 220.252C166.871 220.177 166.926 220.181 166.912 220.181L166.914 217.434C166.503 217.434 166.127 217.53 165.79 217.641C165.458 217.749 165.064 217.906 164.615 218.084L165.627 220.638ZM167.456 216.629C167.521 216.6 167.528 216.597 167.534 216.594L166.479 214.058C166.426 214.08 166.376 214.103 166.324 214.126L167.456 216.629ZM167.866 213.794C167.81 213.794 167.754 213.794 167.696 213.796L167.78 216.542C167.786 216.542 167.794 216.541 167.866 216.541V213.794ZM167.534 216.594C167.611 216.562 167.694 216.544 167.78 216.542L167.696 213.796C167.278 213.809 166.866 213.897 166.479 214.058L167.534 216.594ZM239.44 61.0313C238.948 61.8805 238.516 62.6238 238.246 63.2523C237.971 63.892 237.757 64.6471 237.97 65.4661L240.629 64.7765C240.643 64.8329 240.585 64.7668 240.77 64.3361C240.96 63.894 241.291 63.3175 241.817 62.407L239.44 61.0313ZM243.029 66.4436C242.063 65.8498 241.438 65.4629 241.018 65.1366C240.593 64.806 240.611 64.7074 240.629 64.7765L237.97 65.4661C238.185 66.2978 238.771 66.8687 239.332 67.3053C239.899 67.7462 240.68 68.2242 241.59 68.7835L243.029 66.4436ZM254.137 4.30088C254.283 4.56111 254.292 4.58374 254.299 4.60003L256.855 3.59404C256.765 3.36465 256.645 3.15752 256.534 2.95822L254.137 4.30088ZM257.092 4.90113C257.082 4.67943 257.074 4.44479 257.029 4.20214L254.328 4.70218C254.331 4.71844 254.335 4.73898 254.348 5.02763L257.092 4.90113ZM254.299 4.60003C254.311 4.6316 254.322 4.66974 254.328 4.70218L257.029 4.20214C256.991 3.9962 256.932 3.78867 256.855 3.59404L254.299 4.60003ZM187.537 224.162C187.682 223.425 188.386 223.007 189.053 223.13L188.554 225.832C189.295 225.968 190.072 225.503 190.232 224.693L187.537 224.162ZM256.079 2.14599C255.547 1.19727 254.54 0.626506 253.466 0.626506V3.37349C253.572 3.37349 253.649 3.42974 253.682 3.48865L256.079 2.14599ZM167.932 61.7506C167.802 65.1575 167.697 67.8313 167.825 69.6994C167.889 70.6278 168.016 71.4849 168.289 72.1773C168.574 72.8976 169.097 73.619 170.025 73.8893L170.793 71.252C170.971 71.3037 170.948 71.4308 170.844 71.1673C170.729 70.876 170.624 70.3598 170.566 69.5119C170.451 67.8273 170.544 65.3359 170.677 61.8558L167.932 61.7506ZM176.341 63.2873C174.457 66.3155 173.102 68.4883 172.036 69.8626C171.5 70.5539 171.11 70.945 170.835 71.1387C170.577 71.3208 170.614 71.1998 170.793 71.252L170.025 73.8893C170.954 74.16 171.788 73.8281 172.418 73.3835C173.032 72.9506 173.623 72.2994 174.207 71.5462C175.382 70.0315 176.826 67.707 178.673 64.7387L176.341 63.2873ZM189.08 223.005C188.326 222.937 187.676 223.457 187.537 224.162L190.232 224.693C190.106 225.33 189.517 225.803 188.833 225.741L189.08 223.005Z" fill="#2B3442" mask="url(#path-1-outside-1_532_5306)"/>
<path d="M15.1949 128.936V168.602H6.57205V118.169H14.7288L15.1949 128.936ZM13.1441 141.474L9.55511 141.335C9.58618 137.885 10.0989 134.7 11.0932 131.779C12.0876 128.827 13.4859 126.264 15.2882 124.089C17.0904 121.914 19.2345 120.236 21.7204 119.055C24.2373 117.843 27.0184 117.237 30.0636 117.237C32.5495 117.237 34.7868 117.579 36.7755 118.262C38.7642 118.915 40.4577 119.972 41.856 121.432C43.2854 122.892 44.373 124.788 45.1187 127.118C45.8645 129.418 46.2374 132.23 46.2374 135.555V168.602H37.5679V135.462C37.5679 132.82 37.1795 130.707 36.4026 129.123C35.6258 127.507 34.4916 126.342 33.0001 125.627C31.5085 124.881 29.6752 124.508 27.5001 124.508C25.356 124.508 23.3984 124.959 21.6272 125.86C19.887 126.761 18.38 128.004 17.106 129.589C15.863 131.174 14.8842 132.991 14.1695 135.042C13.4859 137.062 13.1441 139.206 13.1441 141.474ZM58.0055 143.945V142.873C58.0055 139.237 58.5338 135.866 59.5903 132.758C60.6468 129.62 62.1694 126.901 64.1581 124.601C66.1468 122.271 68.555 120.469 71.3827 119.195C74.2104 117.89 77.3799 117.237 80.8912 117.237C84.4336 117.237 87.6186 117.89 90.4463 119.195C93.3051 120.469 95.7288 122.271 97.7175 124.601C99.7373 126.901 101.275 129.62 102.332 132.758C103.388 135.866 103.917 139.237 103.917 142.873V143.945C103.917 147.58 103.388 150.952 102.332 154.059C101.275 157.167 99.7373 159.885 97.7175 162.216C95.7288 164.515 93.3206 166.318 90.4929 167.623C87.6963 168.897 84.5268 169.534 80.9844 169.534C77.442 169.534 74.257 168.897 71.4293 167.623C68.6016 166.318 66.1779 164.515 64.1581 162.216C62.1694 159.885 60.6468 157.167 59.5903 154.059C58.5338 150.952 58.0055 147.58 58.0055 143.945ZM66.6284 142.873V143.945C66.6284 146.462 66.9236 148.839 67.514 151.076C68.1044 153.282 68.99 155.24 70.1708 156.949C71.3827 158.658 72.8898 160.01 74.692 161.004C76.4943 161.967 78.5918 162.449 80.9844 162.449C83.346 162.449 85.4124 161.967 87.1836 161.004C88.9858 160.01 90.4774 158.658 91.6582 156.949C92.839 155.24 93.7246 153.282 94.3149 151.076C94.9364 148.839 95.2472 146.462 95.2472 143.945V142.873C95.2472 140.387 94.9364 138.041 94.3149 135.835C93.7246 133.597 92.8234 131.624 91.6116 129.915C90.4308 128.175 88.9392 126.808 87.137 125.813C85.3658 124.819 83.2839 124.322 80.8912 124.322C78.5296 124.322 76.4477 124.819 74.6454 125.813C72.8742 126.808 71.3827 128.175 70.1708 129.915C68.99 131.624 68.1044 133.597 67.514 135.835C66.9236 138.041 66.6284 140.387 66.6284 142.873ZM130.274 160.818L144.07 118.169H152.88L134.748 168.602H128.969L130.274 160.818ZM118.761 118.169L132.977 161.051L133.956 168.602H128.176L109.905 118.169H118.761ZM191.123 159.979V134.017C191.123 132.028 190.719 130.303 189.911 128.843C189.134 127.351 187.953 126.202 186.368 125.394C184.784 124.586 182.826 124.182 180.495 124.182C178.32 124.182 176.409 124.555 174.762 125.301C173.147 126.046 171.873 127.025 170.94 128.237C170.039 129.449 169.589 130.754 169.589 132.152H160.966C160.966 130.35 161.432 128.563 162.364 126.792C163.296 125.021 164.632 123.421 166.373 121.991C168.144 120.531 170.257 119.381 172.712 118.542C175.197 117.672 177.963 117.237 181.008 117.237C184.675 117.237 187.907 117.859 190.703 119.101C193.531 120.344 195.737 122.224 197.322 124.741C198.938 127.227 199.746 130.35 199.746 134.11V157.602C199.746 159.28 199.885 161.066 200.165 162.962C200.476 164.857 200.926 166.489 201.517 167.856V168.602H192.521C192.086 167.607 191.744 166.287 191.495 164.64C191.247 162.962 191.123 161.408 191.123 159.979ZM192.614 138.025L192.707 144.085H183.991C181.536 144.085 179.346 144.287 177.419 144.69C175.493 145.063 173.877 145.638 172.572 146.415C171.267 147.192 170.272 148.171 169.589 149.352C168.905 150.501 168.563 151.853 168.563 153.407C168.563 154.991 168.921 156.436 169.635 157.741C170.35 159.046 171.422 160.087 172.851 160.864C174.312 161.61 176.099 161.983 178.212 161.983C180.853 161.983 183.183 161.424 185.203 160.305C187.223 159.186 188.823 157.819 190.004 156.203C191.216 154.587 191.868 153.018 191.962 151.496L195.644 155.644C195.426 156.949 194.836 158.394 193.873 159.979C192.909 161.563 191.62 163.086 190.004 164.546C188.419 165.976 186.524 167.172 184.318 168.135C182.142 169.068 179.688 169.534 176.953 169.534C173.535 169.534 170.536 168.866 167.957 167.53C165.409 166.193 163.421 164.407 161.991 162.169C160.593 159.901 159.894 157.368 159.894 154.572C159.894 151.868 160.422 149.491 161.478 147.441C162.535 145.359 164.058 143.634 166.046 142.267C168.035 140.868 170.428 139.812 173.224 139.097C176.021 138.383 179.144 138.025 182.593 138.025H192.614ZM247.519 128.936V168.602H238.896V118.169H247.053L247.519 128.936ZM245.468 141.474L241.879 141.335C241.91 137.885 242.423 134.7 243.417 131.779C244.412 128.827 245.81 126.264 247.612 124.089C249.415 121.914 251.559 120.236 254.045 119.055C256.562 117.843 259.343 117.237 262.388 117.237C264.874 117.237 267.111 117.579 269.1 118.262C271.088 118.915 272.782 119.972 274.18 121.432C275.61 122.892 276.697 124.788 277.443 127.118C278.189 129.418 278.562 132.23 278.562 135.555V168.602H269.892V135.462C269.892 132.82 269.504 130.707 268.727 129.123C267.95 127.507 266.816 126.342 265.324 125.627C263.833 124.881 261.999 124.508 259.824 124.508C257.68 124.508 255.723 124.959 253.951 125.86C252.211 126.761 250.704 128.004 249.43 129.589C248.187 131.174 247.208 132.991 246.494 135.042C245.81 137.062 245.468 139.206 245.468 141.474ZM301.982 118.169V168.602H293.313V118.169H301.982ZM292.66 104.792C292.66 103.394 293.08 102.213 293.919 101.25C294.789 100.286 296.063 99.8048 297.741 99.8048C299.388 99.8048 300.646 100.286 301.516 101.25C302.417 102.213 302.868 103.394 302.868 104.792C302.868 106.128 302.417 107.278 301.516 108.241C300.646 109.173 299.388 109.64 297.741 109.64C296.063 109.64 294.789 109.173 293.919 108.241C293.08 107.278 292.66 106.128 292.66 104.792ZM337.895 118.169V124.788H310.628V118.169H337.895ZM319.856 105.911H328.479V156.11C328.479 157.819 328.743 159.109 329.272 159.979C329.8 160.849 330.484 161.424 331.323 161.703C332.162 161.983 333.063 162.123 334.026 162.123C334.741 162.123 335.486 162.061 336.263 161.936C337.071 161.781 337.677 161.657 338.081 161.563L338.128 168.602C337.444 168.819 336.543 169.021 335.424 169.207C334.337 169.425 333.016 169.534 331.462 169.534C329.349 169.534 327.407 169.114 325.636 168.275C323.865 167.436 322.451 166.038 321.395 164.08C320.369 162.092 319.856 159.419 319.856 156.063V105.911Z" fill="#2B3442"/>
</svg>
