<svg width="130" height="173" viewBox="0 0 130 173" fill="none" xmlns="http://www.w3.org/2000/svg">
<path d="M52.9967 52.9232C66.2304 52.9232 76.9583 42.1952 76.9583 28.9616C76.9583 15.728 66.2304 5 52.9967 5C39.7631 5 29.0352 15.728 29.0352 28.9616C29.0352 42.1952 39.7631 52.9232 52.9967 52.9232Z" stroke="#3F4D61" stroke-width="9.58463" stroke-linecap="round" stroke-linejoin="round"/>
<path d="M55.3915 67.3008H43.3149C34.8325 67.3008 27.4044 72.8599 24.9603 80.9589L14.7048 115.224H5.12012" stroke="#3F4D61" stroke-width="9.58463" stroke-linecap="round" stroke-linejoin="round"/>
<path d="M38.6198 120.016V167.939H29.0352" stroke="#3F4D61" stroke-width="9.58463" stroke-linecap="round" stroke-linejoin="round"/>
<path d="M67.374 120.016V167.939H76.9587" stroke="#3F4D61" stroke-width="9.58463" stroke-linecap="round" stroke-linejoin="round"/>
<path d="M96.1279 75.5484C98.9554 70.1331 104.946 66.5868 111.607 67.4494C119.275 68.4078 124.882 75.3088 124.882 83.0244C124.882 91.363 121.575 99.3662 115.681 105.261L96.1279 124.813L76.5753 105.261C70.6807 99.3662 67.374 91.363 67.374 83.0244C67.374 74.8775 73.604 67.7848 81.751 67.3535C87.981 67.0181 93.4921 70.4206 96.1279 75.5484Z" stroke="#3F4D61" stroke-width="9.58463" stroke-linecap="round" stroke-linejoin="round"/>
</svg>
